<svg width="17" height="13" viewBox="0 0 17 13" fill="none" xmlns="http://www.w3.org/2000/svg">
<path d="M16.0555 1.66961C15.4729 1.92072 14.8401 2.10153 14.1872 2.17184C14.8601 1.77005 15.3724 1.13724 15.6135 0.383894C14.9907 0.755545 14.2876 1.02675 13.5543 1.16738C12.9617 0.534564 12.118 0.142822 11.1838 0.142822C9.38581 0.142822 7.93938 1.5993 7.93938 3.38724C7.93938 3.63836 7.96952 3.88947 8.01974 4.13055C5.32778 3.98992 2.92711 2.70421 1.33001 0.735456C1.04876 1.2176 0.888046 1.77005 0.888046 2.37273C0.888046 3.49773 1.46059 4.49215 2.33447 5.07474C1.80211 5.05465 1.29987 4.90398 0.867954 4.66291C0.867954 4.67296 0.867954 4.69305 0.867954 4.70309C0.867954 6.2801 1.98291 7.5859 3.46952 7.88724C3.19831 7.95755 2.90702 7.99773 2.61572 7.99773C2.40479 7.99773 2.2039 7.97764 2.003 7.94751C2.41483 9.23322 3.61014 10.1674 5.03648 10.1975C3.92153 11.0714 2.52532 11.5837 1.00858 11.5837C0.737374 11.5837 0.486258 11.5736 0.225098 11.5435C1.66148 12.4676 3.36907 13 5.20724 13C11.1738 13 14.4383 8.058 14.4383 3.76894C14.4383 3.62831 14.4383 3.48769 14.4282 3.34706C15.061 2.88501 15.6135 2.31247 16.0555 1.66961Z" fill="#12305B"/>
</svg>
